<?xml version="1.0" encoding="UTF-8" standalone="no"?><!DOCTYPE svg PUBLIC "-//W3C//DTD SVG 1.1//EN" "http://www.w3.org/Graphics/SVG/1.1/DTD/svg11.dtd"><!-- Generated by graphviz version 2.40.1 (20161225.0304)
 --><!-- Title: %0 Pages: 1 --><svg xmlns="http://www.w3.org/2000/svg" xmlns:xlink="http://www.w3.org/1999/xlink" width="1351pt" height="246pt" viewBox="0.00 0.00 1351.00 246.00">
<g id="graph0" class="graph" transform="scale(1 1) rotate(0) translate(4 242)">
<title>%0</title>
<polygon fill="#ffffff" stroke="transparent" points="-4,4 -4,-242 1347,-242 1347,4 -4,4"/>
<g id="clust1" class="cluster">
<title>cluster__disclosed_vendors_segment</title>
<polygon fill="none" stroke="#000000" stroke-dasharray="1,5" points="8,-8 8,-230 1335,-230 1335,-8 8,-8"/>
<text text-anchor="middle" x="671.5" y="-213.4" font-family="Times,serif" font-size="14.00" fill="#000000">DisclosedVendorsSegment</text>
</g>
<g id="clust2" class="cluster">
<title>cluster__vendor_section</title>
<polygon fill="none" stroke="#000000" stroke-dasharray="1,5" points="295,-16 295,-197 640,-197 640,-16 295,-16"/>
<text text-anchor="middle" x="467.5" y="-180.4" font-family="Times,serif" font-size="14.00" fill="#000000">DisclosedVendorsSegment::VendorSection</text>
</g>
<g id="clust3" class="cluster">
<title>cluster__range_section</title>
<polygon fill="none" stroke="#000000" stroke-dasharray="1,5" points="668,-21 668,-158 921,-158 921,-21 668,-21"/>
<text text-anchor="middle" x="794.5" y="-141.4" font-family="Times,serif" font-size="14.00" fill="#000000">DisclosedVendorsSegment::RangeSection</text>
</g>
<g id="clust4" class="cluster">
<title>cluster__range_entry</title>
<polygon fill="none" stroke="#000000" stroke-dasharray="1,5" points="949,-16 949,-153 1327,-153 1327,-16 949,-16"/>
<text text-anchor="middle" x="1138" y="-136.4" font-family="Times,serif" font-size="14.00" fill="#000000">DisclosedVendorsSegment::RangeEntry</text>
</g>
<!-- disclosed_vendors_segment__seq -->
<g id="node1" class="node">
<title>disclosed_vendors_segment__seq</title>
<polygon fill="#e0ffe0" stroke="transparent" points="24.5,-127 24.5,-149 49.5,-149 49.5,-127 24.5,-127"/>
<polygon fill="none" stroke="#000000" points="24.5,-127 24.5,-149 49.5,-149 49.5,-127 24.5,-127"/>
<text text-anchor="start" x="27.2777" y="-133.4" font-family="Times,serif" font-size="14.00" fill="#000000">pos</text>
<polygon fill="#e0ffe0" stroke="transparent" points="49.5,-127 49.5,-149 76.5,-149 76.5,-127 49.5,-127"/>
<polygon fill="none" stroke="#000000" points="49.5,-127 49.5,-149 76.5,-149 76.5,-127 49.5,-127"/>
<text text-anchor="start" x="52.1178" y="-133.4" font-family="Times,serif" font-size="14.00" fill="#000000">size</text>
<polygon fill="#e0ffe0" stroke="transparent" points="76.5,-127 76.5,-149 165.5,-149 165.5,-127 76.5,-127"/>
<polygon fill="none" stroke="#000000" points="76.5,-127 76.5,-149 165.5,-149 165.5,-127 76.5,-127"/>
<text text-anchor="start" x="108.9474" y="-133.4" font-family="Times,serif" font-size="14.00" fill="#000000">type</text>
<polygon fill="#e0ffe0" stroke="transparent" points="165.5,-127 165.5,-149 259.5,-149 259.5,-127 165.5,-127"/>
<polygon fill="none" stroke="#000000" points="165.5,-127 165.5,-149 259.5,-149 259.5,-127 165.5,-127"/>
<text text-anchor="start" x="207.0547" y="-133.4" font-family="Times,serif" font-size="14.00" fill="#000000">id</text>
<polygon fill="none" stroke="#000000" points="24.5,-105 24.5,-127 49.5,-127 49.5,-105 24.5,-105"/>
<text text-anchor="start" x="33.5" y="-111.4" font-family="Times,serif" font-size="14.00" fill="#000000">0</text>
<polygon fill="none" stroke="#000000" points="49.5,-105 49.5,-127 76.5,-127 76.5,-105 49.5,-105"/>
<text text-anchor="start" x="56" y="-111.4" font-family="Times,serif" font-size="14.00" fill="#000000">3b</text>
<polygon fill="none" stroke="#000000" points="76.5,-105 76.5,-127 165.5,-127 165.5,-105 76.5,-105"/>
<text text-anchor="start" x="114" y="-111.4" font-family="Times,serif" font-size="14.00" fill="#000000">b3</text>
<polygon fill="none" stroke="#000000" points="165.5,-105 165.5,-127 259.5,-127 259.5,-105 165.5,-105"/>
<text text-anchor="start" x="173.6199" y="-111.4" font-family="Times,serif" font-size="14.00" fill="#000000">segment_type</text>
<polygon fill="none" stroke="#000000" points="24.5,-83 24.5,-105 49.5,-105 49.5,-83 24.5,-83"/>
<text text-anchor="start" x="28.0547" y="-89.4" font-family="Times,serif" font-size="14.00" fill="#000000">0:3</text>
<polygon fill="none" stroke="#000000" points="49.5,-83 49.5,-105 76.5,-105 76.5,-83 49.5,-83"/>
<text text-anchor="start" x="57.75" y="-89.4" font-family="Times,serif" font-size="14.00" fill="#000000">...</text>
<polygon fill="none" stroke="#000000" points="76.5,-83 76.5,-105 165.5,-105 165.5,-83 76.5,-83"/>
<text text-anchor="start" x="79.0126" y="-89.4" font-family="Times,serif" font-size="14.00" fill="#000000">VendorSection</text>
<polygon fill="none" stroke="#000000" points="165.5,-83 165.5,-105 259.5,-105 259.5,-83 165.5,-83"/>
<text text-anchor="start" x="168.1802" y="-89.4" font-family="Times,serif" font-size="14.00" fill="#000000">vendor_consent</text>
</g>
<!-- vendor_section__seq -->
<g id="node2" class="node">
<title>vendor_section__seq</title>
<polygon fill="#e0ffe0" stroke="transparent" points="311.5,-138 311.5,-160 336.5,-160 336.5,-138 311.5,-138"/>
<polygon fill="none" stroke="#000000" points="311.5,-138 311.5,-160 336.5,-160 336.5,-138 311.5,-138"/>
<text text-anchor="start" x="314.2777" y="-144.4" font-family="Times,serif" font-size="14.00" fill="#000000">pos</text>
<polygon fill="#e0ffe0" stroke="transparent" points="336.5,-138 336.5,-160 363.5,-160 363.5,-138 336.5,-138"/>
<polygon fill="none" stroke="#000000" points="336.5,-138 336.5,-160 363.5,-160 363.5,-138 336.5,-138"/>
<text text-anchor="start" x="339.1178" y="-144.4" font-family="Times,serif" font-size="14.00" fill="#000000">size</text>
<polygon fill="#e0ffe0" stroke="transparent" points="363.5,-138 363.5,-160 513.5,-160 513.5,-138 363.5,-138"/>
<polygon fill="none" stroke="#000000" points="363.5,-138 363.5,-160 513.5,-160 513.5,-138 363.5,-138"/>
<text text-anchor="start" x="426.4474" y="-144.4" font-family="Times,serif" font-size="14.00" fill="#000000">type</text>
<polygon fill="#e0ffe0" stroke="transparent" points="513.5,-138 513.5,-160 624.5,-160 624.5,-138 513.5,-138"/>
<polygon fill="none" stroke="#000000" points="513.5,-138 513.5,-160 624.5,-160 624.5,-138 513.5,-138"/>
<text text-anchor="start" x="563.5547" y="-144.4" font-family="Times,serif" font-size="14.00" fill="#000000">id</text>
<polygon fill="none" stroke="#000000" points="311.5,-116 311.5,-138 336.5,-138 336.5,-116 311.5,-116"/>
<text text-anchor="start" x="320.5" y="-122.4" font-family="Times,serif" font-size="14.00" fill="#000000">0</text>
<polygon fill="none" stroke="#000000" points="336.5,-116 336.5,-138 363.5,-138 363.5,-116 336.5,-116"/>
<text text-anchor="start" x="346.5" y="-122.4" font-family="Times,serif" font-size="14.00" fill="#000000">2</text>
<polygon fill="none" stroke="#000000" points="363.5,-116 363.5,-138 513.5,-138 513.5,-116 363.5,-116"/>
<text text-anchor="start" x="428" y="-122.4" font-family="Times,serif" font-size="14.00" fill="#000000">b16</text>
<polygon fill="none" stroke="#000000" points="513.5,-116 513.5,-138 624.5,-138 624.5,-116 513.5,-116"/>
<text text-anchor="start" x="525.0645" y="-122.4" font-family="Times,serif" font-size="14.00" fill="#000000">max_vendor_id</text>
<polygon fill="none" stroke="#000000" points="311.5,-94 311.5,-116 336.5,-116 336.5,-94 311.5,-94"/>
<text text-anchor="start" x="320.5" y="-100.4" font-family="Times,serif" font-size="14.00" fill="#000000">2</text>
<polygon fill="none" stroke="#000000" points="336.5,-94 336.5,-116 363.5,-116 363.5,-94 336.5,-94"/>
<text text-anchor="start" x="343" y="-100.4" font-family="Times,serif" font-size="14.00" fill="#000000">1b</text>
<polygon fill="none" stroke="#000000" points="363.5,-94 363.5,-116 513.5,-116 513.5,-94 363.5,-94"/>
<text text-anchor="start" x="366.1732" y="-100.4" font-family="Times,serif" font-size="14.00" fill="#000000">BitsType1(BigBitEndian)</text>
<polygon fill="none" stroke="#000000" points="513.5,-94 513.5,-116 624.5,-116 624.5,-94 513.5,-94"/>
<text text-anchor="start" x="516.1276" y="-100.4" font-family="Times,serif" font-size="14.00" fill="#000000">is_range_encoding</text>
<polygon fill="none" stroke="#000000" points="311.5,-72 311.5,-94 336.5,-94 336.5,-72 311.5,-72"/>
<text text-anchor="start" x="315.0547" y="-78.4" font-family="Times,serif" font-size="14.00" fill="#000000">2:1</text>
<polygon fill="none" stroke="#000000" points="336.5,-72 336.5,-94 363.5,-94 363.5,-72 336.5,-72"/>
<text text-anchor="start" x="343" y="-78.4" font-family="Times,serif" font-size="14.00" fill="#000000">1b</text>
<polygon fill="none" stroke="#000000" points="363.5,-72 363.5,-94 513.5,-94 513.5,-72 363.5,-72"/>
<text text-anchor="start" x="366.1732" y="-78.4" font-family="Times,serif" font-size="14.00" fill="#000000">BitsType1(BigBitEndian)</text>
<polygon fill="none" stroke="#000000" points="513.5,-72 513.5,-94 624.5,-94 624.5,-72 513.5,-72"/>
<text text-anchor="start" x="545.2812" y="-78.4" font-family="Times,serif" font-size="14.00" fill="#000000">bit_field</text>
<polygon fill="none" stroke="#000000" points="311.5,-50 311.5,-72 624.5,-72 624.5,-50 311.5,-50"/>
<text text-anchor="start" x="388.3015" y="-56.4" font-family="Times,serif" font-size="14.00" fill="#000000">repeat max_vendor_id times</text>
<polygon fill="none" stroke="#000000" points="311.5,-28 311.5,-50 336.5,-50 336.5,-28 311.5,-28"/>
<text text-anchor="start" x="318.75" y="-34.4" font-family="Times,serif" font-size="14.00" fill="#000000">...</text>
<polygon fill="none" stroke="#000000" points="336.5,-28 336.5,-50 363.5,-50 363.5,-28 336.5,-28"/>
<text text-anchor="start" x="344.75" y="-34.4" font-family="Times,serif" font-size="14.00" fill="#000000">...</text>
<polygon fill="none" stroke="#000000" points="363.5,-28 363.5,-50 513.5,-50 513.5,-28 363.5,-28"/>
<text text-anchor="start" x="399.6206" y="-34.4" font-family="Times,serif" font-size="14.00" fill="#000000">RangeSection</text>
<polygon fill="none" stroke="#000000" points="513.5,-28 513.5,-50 624.5,-50 624.5,-28 513.5,-28"/>
<text text-anchor="start" x="530.1276" y="-34.4" font-family="Times,serif" font-size="14.00" fill="#000000">range_section</text>
</g>
<!-- disclosed_vendors_segment__seq&#45;&gt;vendor_section__seq -->
<g id="edge1" class="edge">
<title>disclosed_vendors_segment__seq:vendor_consent_type-&gt;vendor_section__seq</title>
<path fill="none" stroke="#000000" stroke-width="2" d="M259.5,-94C270.2826,-94 281.3795,-94 292.5709,-94"/>
<polygon fill="#000000" stroke="#000000" stroke-width="2" points="292.8689,-97.5001 302.8688,-94 292.8688,-90.5001 292.8689,-97.5001"/>
</g>
<!-- vendor_section__seq&#45;&gt;vendor_section__seq -->
<g id="edge2" class="edge">
<title>vendor_section__seq:max_vendor_id_type-&gt;vendor_section__seq:bit_field__repeat</title>
<path fill="none" stroke="#404040" d="M513.3201,-130.1369C377.6509,-135.1923 140,-130.1758 140,-94 140,-69.2232 216.3302,-59.0628 301.3445,-56.744"/>
<polygon fill="#404040" stroke="#404040" points="301.5646,-60.2399 311.4793,-56.505 301.3995,-53.2418 301.5646,-60.2399"/>
</g>
<!-- range_section__seq -->
<g id="node3" class="node">
<title>range_section__seq</title>
<polygon fill="#e0ffe0" stroke="transparent" points="692.5,-99 692.5,-121 717.5,-121 717.5,-99 692.5,-99"/>
<polygon fill="none" stroke="#000000" points="692.5,-99 692.5,-121 717.5,-121 717.5,-99 692.5,-99"/>
<text text-anchor="start" x="695.2777" y="-105.4" font-family="Times,serif" font-size="14.00" fill="#000000">pos</text>
<polygon fill="#e0ffe0" stroke="transparent" points="717.5,-99 717.5,-121 744.5,-121 744.5,-99 717.5,-99"/>
<polygon fill="none" stroke="#000000" points="717.5,-99 717.5,-121 744.5,-121 744.5,-99 717.5,-99"/>
<text text-anchor="start" x="720.1178" y="-105.4" font-family="Times,serif" font-size="14.00" fill="#000000">size</text>
<polygon fill="#e0ffe0" stroke="transparent" points="744.5,-99 744.5,-121 816.5,-121 816.5,-99 744.5,-99"/>
<polygon fill="none" stroke="#000000" points="744.5,-99 744.5,-121 816.5,-121 816.5,-99 744.5,-99"/>
<text text-anchor="start" x="768.4474" y="-105.4" font-family="Times,serif" font-size="14.00" fill="#000000">type</text>
<polygon fill="#e0ffe0" stroke="transparent" points="816.5,-99 816.5,-121 897.5,-121 897.5,-99 816.5,-99"/>
<polygon fill="none" stroke="#000000" points="816.5,-99 816.5,-121 897.5,-121 897.5,-99 816.5,-99"/>
<text text-anchor="start" x="851.5547" y="-105.4" font-family="Times,serif" font-size="14.00" fill="#000000">id</text>
<polygon fill="none" stroke="#000000" points="692.5,-77 692.5,-99 717.5,-99 717.5,-77 692.5,-77"/>
<text text-anchor="start" x="701.5" y="-83.4" font-family="Times,serif" font-size="14.00" fill="#000000">0</text>
<polygon fill="none" stroke="#000000" points="717.5,-77 717.5,-99 744.5,-99 744.5,-77 717.5,-77"/>
<text text-anchor="start" x="720.5" y="-83.4" font-family="Times,serif" font-size="14.00" fill="#000000">12b</text>
<polygon fill="none" stroke="#000000" points="744.5,-77 744.5,-99 816.5,-99 816.5,-77 744.5,-77"/>
<text text-anchor="start" x="770" y="-83.4" font-family="Times,serif" font-size="14.00" fill="#000000">b12</text>
<polygon fill="none" stroke="#000000" points="816.5,-77 816.5,-99 897.5,-99 897.5,-77 816.5,-77"/>
<text text-anchor="start" x="822.3969" y="-83.4" font-family="Times,serif" font-size="14.00" fill="#000000">num_entries</text>
<polygon fill="none" stroke="#000000" points="692.5,-55 692.5,-77 717.5,-77 717.5,-55 692.5,-55"/>
<text text-anchor="start" x="696.0547" y="-61.4" font-family="Times,serif" font-size="14.00" fill="#000000">1:4</text>
<polygon fill="none" stroke="#000000" points="717.5,-55 717.5,-77 744.5,-77 744.5,-55 717.5,-55"/>
<text text-anchor="start" x="720.5" y="-61.4" font-family="Times,serif" font-size="14.00" fill="#000000">33b</text>
<polygon fill="none" stroke="#000000" points="744.5,-55 744.5,-77 816.5,-77 816.5,-55 744.5,-55"/>
<text text-anchor="start" x="747.0652" y="-61.4" font-family="Times,serif" font-size="14.00" fill="#000000">RangeEntry</text>
<polygon fill="none" stroke="#000000" points="816.5,-55 816.5,-77 897.5,-77 897.5,-55 816.5,-55"/>
<text text-anchor="start" x="819.2973" y="-61.4" font-family="Times,serif" font-size="14.00" fill="#000000">range_entries</text>
<polygon fill="none" stroke="#000000" points="692.5,-33 692.5,-55 897.5,-55 897.5,-33 692.5,-33"/>
<text text-anchor="start" x="724.6339" y="-39.4" font-family="Times,serif" font-size="14.00" fill="#000000">repeat num_entries times</text>
</g>
<!-- vendor_section__seq&#45;&gt;range_section__seq -->
<g id="edge3" class="edge">
<title>vendor_section__seq:range_section_type-&gt;range_section__seq</title>
<path fill="none" stroke="#000000" stroke-width="2" d="M624.5,-39C640.5284,-39 657.2065,-40.6288 673.5784,-43.2119"/>
<polygon fill="#000000" stroke="#000000" stroke-width="2" points="673.2788,-46.7111 683.7241,-44.9375 674.4526,-39.8102 673.2788,-46.7111"/>
</g>
<!-- range_section__seq&#45;&gt;range_section__seq -->
<g id="edge5" class="edge">
<title>range_section__seq:num_entries_type-&gt;range_section__seq:range_entries__repeat</title>
<path fill="none" stroke="#404040" d="M816.1416,-90.9476C707.9957,-96.5004 521,-93.0645 521,-66 521,-45.5036 601.1445,-38.5589 681.8048,-38.8071"/>
<polygon fill="#404040" stroke="#404040" points="682.1271,-42.3093 692.1509,-38.878 682.1751,-35.3095 682.1271,-42.3093"/>
</g>
<!-- range_entry__seq -->
<g id="node4" class="node">
<title>range_entry__seq</title>
<polygon fill="#e0ffe0" stroke="transparent" points="965,-94 965,-116 990,-116 990,-94 965,-94"/>
<polygon fill="none" stroke="#000000" points="965,-94 965,-116 990,-116 990,-94 965,-94"/>
<text text-anchor="start" x="967.7777" y="-100.4" font-family="Times,serif" font-size="14.00" fill="#000000">pos</text>
<polygon fill="#e0ffe0" stroke="transparent" points="990,-94 990,-116 1017,-116 1017,-94 990,-94"/>
<polygon fill="none" stroke="#000000" points="990,-94 990,-116 1017,-116 1017,-94 990,-94"/>
<text text-anchor="start" x="992.6178" y="-100.4" font-family="Times,serif" font-size="14.00" fill="#000000">size</text>
<polygon fill="#e0ffe0" stroke="transparent" points="1017,-94 1017,-116 1167,-116 1167,-94 1017,-94"/>
<polygon fill="none" stroke="#000000" points="1017,-94 1017,-116 1167,-116 1167,-94 1017,-94"/>
<text text-anchor="start" x="1079.9474" y="-100.4" font-family="Times,serif" font-size="14.00" fill="#000000">type</text>
<polygon fill="#e0ffe0" stroke="transparent" points="1167,-94 1167,-116 1311,-116 1311,-94 1167,-94"/>
<polygon fill="none" stroke="#000000" points="1167,-94 1167,-116 1311,-116 1311,-94 1167,-94"/>
<text text-anchor="start" x="1233.5547" y="-100.4" font-family="Times,serif" font-size="14.00" fill="#000000">id</text>
<polygon fill="none" stroke="#000000" points="965,-72 965,-94 990,-94 990,-72 965,-72"/>
<text text-anchor="start" x="974" y="-78.4" font-family="Times,serif" font-size="14.00" fill="#000000">0</text>
<polygon fill="none" stroke="#000000" points="990,-72 990,-94 1017,-94 1017,-72 990,-72"/>
<text text-anchor="start" x="996.5" y="-78.4" font-family="Times,serif" font-size="14.00" fill="#000000">1b</text>
<polygon fill="none" stroke="#000000" points="1017,-72 1017,-94 1167,-94 1167,-72 1017,-72"/>
<text text-anchor="start" x="1019.6732" y="-78.4" font-family="Times,serif" font-size="14.00" fill="#000000">BitsType1(BigBitEndian)</text>
<polygon fill="none" stroke="#000000" points="1167,-72 1167,-94 1311,-94 1311,-72 1167,-72"/>
<text text-anchor="start" x="1208.6802" y="-78.4" font-family="Times,serif" font-size="14.00" fill="#000000">is_a_range</text>
<polygon fill="none" stroke="#000000" points="965,-50 965,-72 990,-72 990,-50 965,-50"/>
<text text-anchor="start" x="968.5547" y="-56.4" font-family="Times,serif" font-size="14.00" fill="#000000">0:1</text>
<polygon fill="none" stroke="#000000" points="990,-50 990,-72 1017,-72 1017,-50 990,-50"/>
<text text-anchor="start" x="1000" y="-56.4" font-family="Times,serif" font-size="14.00" fill="#000000">2</text>
<polygon fill="none" stroke="#000000" points="1017,-50 1017,-72 1167,-72 1167,-50 1017,-50"/>
<text text-anchor="start" x="1081.5" y="-56.4" font-family="Times,serif" font-size="14.00" fill="#000000">b16</text>
<polygon fill="none" stroke="#000000" points="1167,-50 1167,-72 1311,-72 1311,-50 1167,-50"/>
<text text-anchor="start" x="1169.791" y="-56.4" font-family="Times,serif" font-size="14.00" fill="#000000">start_or_only_vendor_id</text>
<polygon fill="none" stroke="#000000" points="965,-28 965,-50 990,-50 990,-28 965,-28"/>
<text text-anchor="start" x="968.5547" y="-34.4" font-family="Times,serif" font-size="14.00" fill="#000000">2:1</text>
<polygon fill="none" stroke="#000000" points="990,-28 990,-50 1017,-50 1017,-28 990,-28"/>
<text text-anchor="start" x="1000" y="-34.4" font-family="Times,serif" font-size="14.00" fill="#000000">2</text>
<polygon fill="none" stroke="#000000" points="1017,-28 1017,-50 1167,-50 1167,-28 1017,-28"/>
<text text-anchor="start" x="1081.5" y="-34.4" font-family="Times,serif" font-size="14.00" fill="#000000">b16</text>
<polygon fill="none" stroke="#000000" points="1167,-28 1167,-50 1311,-50 1311,-28 1167,-28"/>
<text text-anchor="start" x="1197.0098" y="-34.4" font-family="Times,serif" font-size="14.00" fill="#000000">end_vendor_id</text>
</g>
<!-- range_section__seq&#45;&gt;range_entry__seq -->
<g id="edge4" class="edge">
<title>range_section__seq:range_entries_type-&gt;range_entry__seq</title>
<path fill="none" stroke="#000000" stroke-width="2" d="M897.5,-66C913.4104,-66 929.911,-66.1329 946.474,-66.359"/>
<polygon fill="#000000" stroke="#000000" stroke-width="2" points="946.7394,-69.8632 956.79,-66.5116 946.8429,-62.864 946.7394,-69.8632"/>
</g>
</g>
</svg>