<?xml version="1.0" encoding="UTF-8" standalone="no"?><!DOCTYPE svg PUBLIC "-//W3C//DTD SVG 1.1//EN" "http://www.w3.org/Graphics/SVG/1.1/DTD/svg11.dtd"><!-- Generated by graphviz version 2.40.1 (20161225.0304)
 --><!-- Title: %0 Pages: 1 --><svg xmlns="http://www.w3.org/2000/svg" xmlns:xlink="http://www.w3.org/1999/xlink" width="645pt" height="315pt" viewBox="0.00 0.00 645.00 315.00">
<g id="graph0" class="graph" transform="scale(1 1) rotate(0) translate(4 311)">
<title>%0</title>
<polygon fill="#ffffff" stroke="transparent" points="-4,4 -4,-311 641,-311 641,4 -4,4"/>
<g id="clust1" class="cluster">
<title>cluster__publisher_tc_segment</title>
<polygon fill="none" stroke="#000000" stroke-dasharray="1,5" points="199,-8 199,-299 629,-299 629,-8 199,-8"/>
<text text-anchor="middle" x="414" y="-282.4" font-family="Times,serif" font-size="14.00" fill="#000000">PublisherTcSegment</text>
</g>
<!-- publisher_tc_segment__seq -->
<g id="node1" class="node">
<title>publisher_tc_segment__seq</title>
<polygon fill="#e0ffe0" stroke="transparent" points="215,-240 215,-262 240,-262 240,-240 215,-240"/>
<polygon fill="none" stroke="#000000" points="215,-240 215,-262 240,-262 240,-240 215,-240"/>
<text text-anchor="start" x="217.7777" y="-246.4" font-family="Times,serif" font-size="14.00" fill="#000000">pos</text>
<polygon fill="#e0ffe0" stroke="transparent" points="240,-240 240,-262 267,-262 267,-240 240,-240"/>
<polygon fill="none" stroke="#000000" points="240,-240 240,-262 267,-262 267,-240 240,-240"/>
<text text-anchor="start" x="242.6178" y="-246.4" font-family="Times,serif" font-size="14.00" fill="#000000">size</text>
<polygon fill="#e0ffe0" stroke="transparent" points="267,-240 267,-262 417,-262 417,-240 267,-240"/>
<polygon fill="none" stroke="#000000" points="267,-240 267,-262 417,-262 417,-240 267,-240"/>
<text text-anchor="start" x="329.9474" y="-246.4" font-family="Times,serif" font-size="14.00" fill="#000000">type</text>
<polygon fill="#e0ffe0" stroke="transparent" points="417,-240 417,-262 613,-262 613,-240 417,-240"/>
<polygon fill="none" stroke="#000000" points="417,-240 417,-262 613,-262 613,-240 417,-240"/>
<text text-anchor="start" x="509.5547" y="-246.4" font-family="Times,serif" font-size="14.00" fill="#000000">id</text>
<polygon fill="none" stroke="#000000" points="215,-218 215,-240 240,-240 240,-218 215,-218"/>
<text text-anchor="start" x="224" y="-224.4" font-family="Times,serif" font-size="14.00" fill="#000000">0</text>
<polygon fill="none" stroke="#000000" points="240,-218 240,-240 267,-240 267,-218 240,-218"/>
<text text-anchor="start" x="246.5" y="-224.4" font-family="Times,serif" font-size="14.00" fill="#000000">3b</text>
<polygon fill="none" stroke="#000000" points="267,-218 267,-240 417,-240 417,-218 267,-218"/>
<text text-anchor="start" x="335" y="-224.4" font-family="Times,serif" font-size="14.00" fill="#000000">b3</text>
<polygon fill="none" stroke="#000000" points="417,-218 417,-240 613,-240 613,-218 417,-218"/>
<text text-anchor="start" x="476.1199" y="-224.4" font-family="Times,serif" font-size="14.00" fill="#000000">segment_type</text>
<polygon fill="none" stroke="#000000" points="215,-196 215,-218 240,-218 240,-196 215,-196"/>
<text text-anchor="start" x="218.5547" y="-202.4" font-family="Times,serif" font-size="14.00" fill="#000000">0:3</text>
<polygon fill="none" stroke="#000000" points="240,-196 240,-218 267,-218 267,-196 240,-196"/>
<text text-anchor="start" x="246.5" y="-202.4" font-family="Times,serif" font-size="14.00" fill="#000000">1b</text>
<polygon fill="none" stroke="#000000" points="267,-196 267,-218 417,-218 417,-196 267,-196"/>
<text text-anchor="start" x="269.6732" y="-202.4" font-family="Times,serif" font-size="14.00" fill="#000000">BitsType1(BigBitEndian)</text>
<polygon fill="none" stroke="#000000" points="417,-196 417,-218 613,-218 613,-196 417,-196"/>
<text text-anchor="start" x="451.2356" y="-202.4" font-family="Times,serif" font-size="14.00" fill="#000000">pub_purposes_consent</text>
<polygon fill="none" stroke="#000000" points="215,-174 215,-196 613,-196 613,-174 215,-174"/>
<text text-anchor="start" x="371.237" y="-180.4" font-family="Times,serif" font-size="14.00" fill="#000000">repeat 24 times</text>
<polygon fill="none" stroke="#000000" points="215,-152 215,-174 240,-174 240,-152 215,-152"/>
<text text-anchor="start" x="218.5547" y="-158.4" font-family="Times,serif" font-size="14.00" fill="#000000">3:3</text>
<polygon fill="none" stroke="#000000" points="240,-152 240,-174 267,-174 267,-152 240,-152"/>
<text text-anchor="start" x="246.5" y="-158.4" font-family="Times,serif" font-size="14.00" fill="#000000">1b</text>
<polygon fill="none" stroke="#000000" points="267,-152 267,-174 417,-174 417,-152 267,-152"/>
<text text-anchor="start" x="269.6732" y="-158.4" font-family="Times,serif" font-size="14.00" fill="#000000">BitsType1(BigBitEndian)</text>
<polygon fill="none" stroke="#000000" points="417,-152 417,-174 613,-174 613,-152 417,-152"/>
<text text-anchor="start" x="429.4698" y="-158.4" font-family="Times,serif" font-size="14.00" fill="#000000">pub_purposes_li_transparency</text>
<polygon fill="none" stroke="#000000" points="215,-130 215,-152 613,-152 613,-130 215,-130"/>
<text text-anchor="start" x="371.237" y="-136.4" font-family="Times,serif" font-size="14.00" fill="#000000">repeat 24 times</text>
<polygon fill="none" stroke="#000000" points="215,-108 215,-130 240,-130 240,-108 215,-108"/>
<text text-anchor="start" x="218.5547" y="-114.4" font-family="Times,serif" font-size="14.00" fill="#000000">6:3</text>
<polygon fill="none" stroke="#000000" points="240,-108 240,-130 267,-130 267,-108 240,-108"/>
<text text-anchor="start" x="246.5" y="-114.4" font-family="Times,serif" font-size="14.00" fill="#000000">6b</text>
<polygon fill="none" stroke="#000000" points="267,-108 267,-130 417,-130 417,-108 267,-108"/>
<text text-anchor="start" x="335" y="-114.4" font-family="Times,serif" font-size="14.00" fill="#000000">b6</text>
<polygon fill="none" stroke="#000000" points="417,-108 417,-130 613,-130 613,-108 417,-108"/>
<text text-anchor="start" x="450.4523" y="-114.4" font-family="Times,serif" font-size="14.00" fill="#000000">num_custom_purposes</text>
<polygon fill="none" stroke="#000000" points="215,-86 215,-108 240,-108 240,-86 215,-86"/>
<text text-anchor="start" x="218.5547" y="-92.4" font-family="Times,serif" font-size="14.00" fill="#000000">7:1</text>
<polygon fill="none" stroke="#000000" points="240,-86 240,-108 267,-108 267,-86 240,-86"/>
<text text-anchor="start" x="246.5" y="-92.4" font-family="Times,serif" font-size="14.00" fill="#000000">1b</text>
<polygon fill="none" stroke="#000000" points="267,-86 267,-108 417,-108 417,-86 267,-86"/>
<text text-anchor="start" x="269.6732" y="-92.4" font-family="Times,serif" font-size="14.00" fill="#000000">BitsType1(BigBitEndian)</text>
<polygon fill="none" stroke="#000000" points="417,-86 417,-108 613,-108 613,-86 417,-86"/>
<text text-anchor="start" x="441.5154" y="-92.4" font-family="Times,serif" font-size="14.00" fill="#000000">custom_purposes_consent</text>
<polygon fill="none" stroke="#000000" points="215,-64 215,-86 613,-86 613,-64 215,-64"/>
<text text-anchor="start" x="313.6893" y="-70.4" font-family="Times,serif" font-size="14.00" fill="#000000">repeat num_custom_purposes times</text>
<polygon fill="none" stroke="#000000" points="215,-42 215,-64 240,-64 240,-42 215,-42"/>
<text text-anchor="start" x="222.25" y="-48.4" font-family="Times,serif" font-size="14.00" fill="#000000">...</text>
<polygon fill="none" stroke="#000000" points="240,-42 240,-64 267,-64 267,-42 240,-42"/>
<text text-anchor="start" x="246.5" y="-48.4" font-family="Times,serif" font-size="14.00" fill="#000000">1b</text>
<polygon fill="none" stroke="#000000" points="267,-42 267,-64 417,-64 417,-42 267,-42"/>
<text text-anchor="start" x="269.6732" y="-48.4" font-family="Times,serif" font-size="14.00" fill="#000000">BitsType1(BigBitEndian)</text>
<polygon fill="none" stroke="#000000" points="417,-42 417,-64 613,-64 613,-42 417,-42"/>
<text text-anchor="start" x="419.7496" y="-48.4" font-family="Times,serif" font-size="14.00" fill="#000000">custom_purposes_li_transparency</text>
<polygon fill="none" stroke="#000000" points="215,-20 215,-42 613,-42 613,-20 215,-20"/>
<text text-anchor="start" x="313.6893" y="-26.4" font-family="Times,serif" font-size="14.00" fill="#000000">repeat num_custom_purposes times</text>
</g>
<!-- publisher_tc_segment__seq&#45;&gt;publisher_tc_segment__seq -->
<g id="edge1" class="edge">
<title>publisher_tc_segment__seq:num_custom_purposes_type-&gt;publisher_tc_segment__seq:custom_purposes_consent__repeat</title>
<path fill="none" stroke="#404040" d="M416.8316,-122.954C249.4775,-126.9215 0,-122.2178 0,-97 0,-78.6225 96.9966,-71.1396 204.7373,-69.9678"/>
<polygon fill="#404040" stroke="#404040" points="204.8887,-73.4667 214.8566,-69.8764 204.8254,-66.467 204.8887,-73.4667"/>
</g>
<!-- publisher_tc_segment__seq&#45;&gt;publisher_tc_segment__seq -->
<g id="edge2" class="edge">
<title>publisher_tc_segment__seq:num_custom_purposes_type-&gt;publisher_tc_segment__seq:custom_purposes_li_transparency__repeat</title>
<path fill="none" stroke="#404040" d="M416.8316,-122.8112C249.4775,-126.1561 0,-118.1143 0,-75 0,-43.5805 96.9966,-30.7871 204.7373,-27.453"/>
<polygon fill="#404040" stroke="#404040" points="204.9591,-30.9482 214.8566,-27.1681 204.762,-23.951 204.9591,-30.9482"/>
</g>
</g>
</svg>